<?xml version="1.0" encoding="utf-8"?>
<!-- Generator: Adobe Illustrator 21.0.2, SVG Export Plug-In . SVG Version: 6.00 Build 0)  -->
<svg version="1.1" id="Layer_1" xmlns="http://www.w3.org/2000/svg" xmlns:xlink="http://www.w3.org/1999/xlink" x="0px" y="0px"
	 viewBox="0 0 354.8 60" style="enable-background:new 0 0 354.8 60;" xml:space="preserve">
<style type="text/css">
	.st0{display:none;}
	.st1{display:inline;}
	.st2{fill:#EE3124;}
	.st3{fill:#F78E1E;}
	.st4{fill:#FFFFFF;}
</style>
<g id="Layer_2_1_" class="st0">
	<rect class="st1" width="161.5" height="60"/>
</g>
<path class="st2" d="M28.7,19.4V1.1H1v28.5C1,45.3,13.8,58,29.5,58h28.5V30.3H39.7C33.6,30.3,28.7,25.4,28.7,19.4z"/>
<g>
	<path class="st3" d="M38.4,13.3V1.1h-8.2v18.3c0,5.2,4.2,9.4,9.4,9.4h18.3v-8.2l-12.2,0C41.7,20.6,38.4,17.3,38.4,13.3z"/>
	<path class="st3" d="M48.2,7.2V1.1H40v12.2c0,3.2,2.6,5.7,5.7,5.7h12.2v-8.2l-6.1,0C49.8,10.8,48.2,9.2,48.2,7.2z"/>
	<path class="st3" d="M49.8,1.1l0,6.1c0,1.1,0.9,2.1,2.1,2.1h6.1V1.1H49.8z"/>
</g>
<g>
	<path class="st4" d="M126,15.1c13,0,21.5,8.7,21.5,22c0,13.2-8.4,21.9-21.5,21.9c-13,0-21.4-8.7-21.4-21.9
		C104.6,23.8,113,15.1,126,15.1z M126,50.3c7.8,0,10.1-6.7,10.1-13.3c0-6.7-2.3-13.4-10.1-13.4c-7.7,0-10,6.7-10,13.4
		C116,43.6,118.3,50.3,126,50.3z"/>
	<path class="st4" d="M150.5,1.1h11.4v20.3h0.2c2.8-4.3,7.9-6.2,13-6.2c8.3,0,17.1,6.7,17.1,21.9c0,15.3-8.9,22-17.1,22
		c-6.1,0-11.1-1.9-13.6-6.4h-0.2V58h-10.8V1.1z M171.1,23.9c-6.7,0-9.7,6.4-9.7,13.4c0,6.9,3,13.3,9.7,13.3c6.7,0,9.7-6.4,9.7-13.3
		C180.8,30.2,177.9,23.9,171.1,23.9z"/>
	<path class="st4" d="M195.2,1.1h11.4V58h-11.4V1.1z"/>
	<path class="st4" d="M210.6,29.2c0.6-10.7,10.2-13.9,19.5-13.9c8.2,0,18.2,1.9,18.2,11.8v21.7c0,3.8,0.4,7.6,1.4,9.3h-11.5
		c-0.4-1.3-0.7-2.6-0.8-4c-3.6,3.8-8.9,5.2-13.9,5.2c-7.9,0-14.1-3.9-14.1-12.5c0-9.4,7-11.7,14.1-12.6c7-1,13.4-0.8,13.4-5.5
		c0-4.9-3.4-5.6-7.4-5.6c-4.3,0-7.1,1.8-7.5,6.3H210.6z M236.6,37.6c-1.9,1.7-5.9,1.8-9.5,2.4c-3.5,0.7-6.7,1.9-6.7,6.1
		c0,4.3,3.3,5.3,7,5.3c8.9,0,9.2-7.1,9.2-9.6V37.6z"/>
	<path class="st4" d="M299.4,58h-11.7l-7.4-27.9h-0.1L273.1,58h-11.8l-13.1-41.6h12l7.6,28.3h0.2l6.9-28.3h11l7,28.2h0.2l7.6-28.2
		h11.7L299.4,58z"/>
	<path class="st4" d="M321.9,44.5c0.1,5,4.2,7,8.7,7c3.3,0,7.4-1.3,7.4-5.3c0-3.5-4.7-4.7-12.9-6.4c-6.6-1.4-13.1-3.8-13.1-11.1
		c0-10.6,9.1-13.4,18-13.4c9,0,17.4,3.1,18.2,13.3h-10.8c-0.3-4.4-3.7-5.6-7.8-5.6c-2.6,0-6.3,0.5-6.3,3.9c0,4.1,6.4,4.7,12.9,6.2
		c6.6,1.5,13.1,3.9,13.1,11.7c0,11-9.4,14.5-18.9,14.5c-9.6,0-19-3.6-19.4-14.7H321.9z"/>
	<path class="st4" d="M84.9,46.2c-2.7,0-4.9-2.2-4.9-4.9V1.1H67.4v40.2c0,4.6,1.9,8.8,4.9,11.8v0h0c3,3,7.2,4.9,11.7,4.9h20.3V46.2
		H84.9z"/>
</g>
<path class="st4" d="M352.5,15.7c0.5,0.5,0.7,1,0.7,1.7c0,0.7-0.2,1.2-0.7,1.7c-0.5,0.5-1,0.7-1.7,0.7c-0.6,0-1.2-0.2-1.7-0.7
	c-0.5-0.5-0.7-1-0.7-1.7c0-0.6,0.2-1.2,0.7-1.7c0.5-0.5,1-0.7,1.7-0.7C351.5,15,352.1,15.2,352.5,15.7z M352.9,15.3
	c-0.6-0.6-1.2-0.8-2-0.8c-0.7,0-1.4,0.3-2,0.8c-0.6,0.6-0.9,1.2-0.9,2.1c0,0.8,0.3,1.5,0.8,2c0.6,0.5,1.2,0.8,2,0.8
	c0.8,0,1.4-0.3,2-0.8c0.6-0.6,0.9-1.2,0.9-2C353.7,16.6,353.4,15.9,352.9,15.3z M351.2,17.1c-0.1,0.1-0.3,0.1-0.4,0.1h-0.3v-0.9h0.2
	c0.2,0,0.4,0,0.5,0.1c0.2,0.1,0.3,0.2,0.3,0.4C351.4,16.9,351.3,17,351.2,17.1z M350.4,17.8h0.2l0.2,0c0.1,0,0.2,0,0.3,0.1
	c0.1,0,0.2,0.1,0.2,0.2c0,0.1,0,0.2,0.1,0.4c0,0.2,0,0.3,0,0.4h0.8l0-0.1c0,0,0-0.1,0-0.1c0,0,0-0.1,0-0.1v-0.3
	c0-0.3-0.1-0.6-0.3-0.7c-0.1-0.1-0.3-0.1-0.4-0.2c0.2,0,0.4-0.1,0.5-0.2c0.1-0.1,0.2-0.3,0.2-0.6c0-0.3-0.1-0.6-0.4-0.8
	c-0.2-0.1-0.4-0.1-0.6-0.2c0,0-0.3,0-0.7,0c-0.4,0-0.7,0-0.9,0v3.2h0.8V17.8z"/>
</svg>
